<svg xmlns="http://www.w3.org/2000/svg" width="44" height="44" fill="none"><path fill="#fff" d="m23.94 18.708 1.406-.008c.892-.934 1.97-2.045 3.376-1.962 1.413-.076 2.485 1.015 3.377 1.962.597.023 1.75-.065 2.308.143V9.895H9.593v14.287h10.279l.7-.707.014-1.406a3.39 3.39 0 0 1 3.354-3.361m-9.46-3.136c-1.478-.022-1.486-2.232 0-2.256h15.04c1.476.026 1.485 2.228 0 2.256z"/><path fill="#fff" d="M38.919 4.255H5.08a1.125 1.125 0 0 0-1.128 1.12v23.319a1.13 1.13 0 0 0 1.128 1.128h15.092c-1-.884-1.739-2.042-1.527-3.384H8.465a1.13 1.13 0 0 1-1.128-1.128V8.767A1.126 1.126 0 0 1 8.465 7.64h27.07a1.13 1.13 0 0 1 1.128 1.128v12.19c.286.636.19 1.824.21 2.518l.993 1c1.587 1.674 1.105 3.963-.594 5.347h1.647a1.136 1.136 0 0 0 1.128-1.128V5.376a1.13 1.13 0 0 0-1.128-1.12M35.212 34.98l-3.113.023-1.436 1.414 1.118 3.08a.375.375 0 0 0 .694.03l1.045-2.238 2.23 1.043a.376.376 0 0 0 .512-.469zM22.24 34.98l-1.05 2.883a.376.376 0 0 0 .513.47l2.23-1.044 1.045 2.239a.376.376 0 0 0 .693-.03l1.119-3.074-1.444-1.42z"/><path fill="#fff" d="m34.627 24.406-.017-2.323a1.126 1.126 0 0 0-1.117-1.118l-2.324-.017-1.654-1.63a1.126 1.126 0 0 0-1.58 0l-1.654 1.63-2.324.017a1.126 1.126 0 0 0-1.117 1.118l-.017 2.323-1.63 1.654a1.125 1.125 0 0 0 0 1.58l1.63 1.655.017 2.323a1.125 1.125 0 0 0 1.117 1.117l2.324.017 1.654 1.63a1.126 1.126 0 0 0 1.58 0l1.654-1.63 2.323-.017a1.126 1.126 0 0 0 1.118-1.117l.017-2.323 1.63-1.655a1.125 1.125 0 0 0 0-1.58zm-5.902 5.452c-3.976-.123-3.975-5.893 0-6.015 3.976.122 3.975 5.893 0 6.015"/></svg>