
<svg xmlns="http://www.w3.org/2000/svg" width="24" height="20" fill="none"><path fill="#e6b626" d="m.662 5.745 10.46-3.214a3 3 0 0 1 1.755 0l10.46 3.214a.883.883 0 0 1 0 1.71l-1.823.56c.4.494.646 1.098.67 1.759.362.207.616.58.616 1.026 0 .404-.213.744-.52.962l.958 4.308a.6.6 0 0 1-.586.73h-2.104a.6.6 0 0 1-.585-.73l.957-4.308c-.307-.218-.52-.558-.52-.962 0-.434.243-.797.587-1.008a1.77 1.77 0 0 0-.775-1.377l-7.334 2.254c-.34.104-.992.234-1.755 0L.663 7.455a.883.883 0 0 1 0-1.71m10.109 6.07a4.2 4.2 0 0 0 2.46 0l5.437-1.67.532 4.255c0 1.326-3.223 2.4-7.2 2.4-3.976 0-7.2-1.074-7.2-2.4l.532-4.255z"/></svg>