<svg xmlns="http://www.w3.org/2000/svg" width="42" height="42" fill="none"><g fill="#fff" clip-path="url(#a)"><path d="M25.475 31.192c-1.12-.752-10.719-7.29-13.306-11.865l-.142-.252-.292-.01c-2.227-.092-3.96 1.197-4.702 1.863q-.454-.46-.926-.947l-.376-.385-.373.388C3.897 21.5 3.25 22.91 3.436 24.18c.15 1.03.855 1.929 2.039 2.6.213.12 2.685 1.801 5.37 3.947-.463.473-2.15 1.565-2.761 2-.687.488-3.55 3.086-3.55 3.086l1.85.436.64 1.25s.878-2.15 1.842-3.212c.964-1.061 2.648-1.91 2.648-1.91s-.91 1.3-1.563 2.561c-.651 1.262-.818 3.448-.818 3.448l1.13-.358.78 1.7s.208-2.402.687-3.966c.387-1.265 1.335-2.465 1.688-2.885 3.406 3 6.965 6.62 7.677 7.351.43.493.986.857 1.71 1.018.26.056.522.084.778.084 1.474 0 2.872-.919 3.773-2.527 1.052-1.87 1.348-4.748-.478-6.639-.5-.522-.973-.818-1.403-.973m-14.443-1.648c-2.465-1.94-4.713-3.483-5.041-3.669-.907-.513-1.42-1.134-1.523-1.844-.121-.835.309-1.818 1.278-2.928 2.41 2.468 4.472 4.426 6.222 5.983-.792 1.284-.93 1.974-.936 2.458m1.53-3.327a112 112 0 0 1-4.79-4.546c.615-.539 1.968-1.529 3.644-1.569.876 1.436 2.327 3.013 3.963 4.538-.851.087-1.914.459-2.816 1.577m1.06 5.457a8.3 8.3 0 0 1 .76-2.531c3.065 2.496 4.805 3.409 5.566 3.73-.118.878-.318 2.902.03 4.753-1.646-1.628-4.065-3.966-6.356-5.952m12.83 6.625c-.648 1.155-1.886 2.272-3.418 1.933-2.631-.58-2.33-5.693-1.991-7.614l.085-.486-.483-.113c-.02-.005-1.658-.465-5.703-3.768.76-.884 1.977-1.28 2.903-1.454 2.284 1.896 4.558 3.534 5.917 4.483q-.062.03-.114.062c-1.567.89-2.22 3.462-1.88 4.695.398 1.45 1.366 2.38 2.385 2.361.435-.016 1.496-.262 1.883-2.197l.06-.302-.233-.197c-1.47-1.251-2.266-1.99-2.646-2.361.242-.471.562-.88.946-1.098.582-.327 1.245-.112 1.973.643 1.453 1.512 1.183 3.867.317 5.413m-1.508-2.008c-.182.66-.486 1.057-.832 1.066h-.016c-.433 0-1.04-.552-1.328-1.596-.092-.333-.066-.83.058-1.348a64 64 0 0 0 2.118 1.879M8.205 11.856l-1.647 5.275s6.73.654 12.334 2.401c5.607 1.752 11.512 5.044 11.512 5.044l1.674-5.369s-5.03-5.07-11.02-6.94c-5.988-1.867-12.853-.41-12.853-.41"/><path d="m42 19.287-1.96-2.056.194-.623s1.726-3.175-2.622-2.589c-.226.044-.36.117-.437.208L24.237.664 0 6.013l6.665 5.953.358-1.147s7.657-1.623 14.334.46c6.677 2.086 12.287 7.738 12.287 7.738l-.624 2 5.006-.966c-.834 2.669-1.792 5.743-2.091 6.695l-1.425-.447-1.036 3.313 2.308-.718 1.696 1.97 1.033-3.313-1.54-.483 2.263-7.25zm-2.87-.742a1.05 1.05 0 1 1-2.004-.626 1.05 1.05 0 0 1 2.005.626m-.977-3.294c.547-.162 1.475-.33 1.228.46-.025.078-.092.3-.197.624z"/></g><defs><clipPath id="a"><path fill="#fff" d="M0 0h42v42H0z"/></clipPath></defs></svg>