
<svg xmlns="http://www.w3.org/2000/svg" width="18" height="18" fill="none"><g clip-path="url(#a)"><path fill="#eef3f7" d="M9.006 12a3 3 0 1 1-.011-6 3 3 0 0 1 .01 6m.003 1.621A4.62 4.62 0 1 0 8.99 4.38a4.62 4.62 0 0 0 .018 9.241m-4.82-8.336a1.08 1.08 0 1 0-.005-2.16 1.08 1.08 0 0 0 .005 2.16m12.143 7.337c-.038.878-.184 1.354-.306 1.672-.163.42-.358.72-.671 1.036-.315.315-.614.511-1.034.675-.317.124-.793.272-1.67.313-.95.045-1.234.055-3.637.06s-2.687-.005-3.637-.046c-.876-.038-1.354-.184-1.67-.306a2.8 2.8 0 0 1-1.037-.672 2.8 2.8 0 0 1-.675-1.033c-.124-.318-.271-.793-.313-1.67-.045-.95-.055-1.234-.06-3.637s.004-2.687.046-3.637c.038-.876.184-1.354.306-1.67.163-.421.357-.721.672-1.037a2.8 2.8 0 0 1 1.034-.675c.316-.124.793-.271 1.67-.313.949-.045 1.233-.055 3.636-.06s2.687.004 3.636.046c.878.038 1.354.184 1.672.306.42.163.72.358 1.036.672.315.314.511.613.676 1.034.123.316.27.793.312 1.67.045.948.055 1.233.06 3.636s-.005 2.687-.046 3.636m-16.27.105c.046.958.199 1.612.423 2.184.23.591.54 1.093 1.04 1.592a4.4 4.4 0 0 0 1.597 1.035c.573.221 1.227.372 2.185.414.96.042 1.266.052 3.71.047s2.75-.015 3.71-.061c.958-.046 1.612-.199 2.184-.423a4.4 4.4 0 0 0 1.592-1.04c.5-.502.806-1.005 1.035-1.597.221-.572.372-1.227.414-2.185.042-.96.051-1.266.047-3.71-.005-2.444-.016-2.75-.061-3.71-.046-.958-.2-1.612-.423-2.184a4.4 4.4 0 0 0-1.04-1.592A4.4 4.4 0 0 0 14.877.462C14.306.241 13.651.09 12.694.048c-.96-.042-1.268-.052-3.711-.047-2.444.005-2.75.016-3.71.061-.958.046-1.612.2-2.184.423a4.4 4.4 0 0 0-1.592 1.04A4.4 4.4 0 0 0 .462 3.123C.241 3.694.09 4.349.048 5.307c-.042.96-.052 1.266-.047 3.71s.015 2.75.061 3.71"/></g><defs><clipPath id="a"><path fill="#fff" d="M0 18V0h18v18z"/></clipPath></defs></svg>