<svg xmlns="http://www.w3.org/2000/svg" width="42" height="42" fill="none"><path fill="#fff" d="M30.027 31.03c-2.17-.797-4.045-1.486-4.249-3.448-.094-.904-.017-1.967.222-3.076.75-.804 1.372-1.964 2.009-3.748 1.268-.489 2.076-1.575 2.47-3.318.201-.893-.087-1.81-.793-2.527.064-1.083.008-1.143-.033-1.186l-.044-.044H12.428v1.223c-.812.748-1.117 1.6-.906 2.534.393 1.743 1.202 2.828 2.471 3.318.637 1.784 1.258 2.943 2.007 3.746.169.781.34 1.937.222 3.078-.204 1.962-2.078 2.65-4.249 3.448-2.98 1.094-6.356 2.335-6.356 7.271 0 1.536 4.773 3.7 15.383 3.7s15.383-2.164 15.383-3.7c0-4.936-3.377-6.177-6.356-7.271m-10.84 8.72-2.533-10.29 3.074 1.279-.189 1.695.54-.013zm3.544-7.316-.189-1.695 3.074-1.28-2.534 10.292-.89-7.33z"/><path fill="#fff" d="m7.472 6.79 4.5 1.98v2.986h18.266V8.77l1.837-.808v4.203a.8.8 0 0 0-.688.778c0 .34.224.635.55.743l-.524 3.3a.75.75 0 0 0 .743.87h1.377a.75.75 0 0 0 .743-.87l-.523-3.3a.79.79 0 0 0 .551-.743.8.8 0 0 0-.689-.778v-4.88l1.123-.494a.6.6 0 0 0 .364-.546.6.6 0 0 0-.364-.545L22.39.27A3.2 3.2 0 0 0 21.105 0c-.447 0-.879.09-1.284.27L7.47 5.7a.6.6 0 0 0-.363.545c0 .236.143.45.364.545"/></svg>