
<svg xmlns="http://www.w3.org/2000/svg" width="30" height="21" fill="none"><path fill="#fff" d="M17.828 6.945V5.55a11 11 0 0 1 2.589-.918 13 13 0 0 1 2.833-.306q.831 0 1.596.107.763.108 1.578.303v1.362a9 9 0 0 0-1.53-.348 13 13 0 0 0-1.644-.096q-1.455 0-2.838.327-1.386.327-2.586.964m0 8.193v-1.455a10 10 0 0 1 2.575-.916 13.5 13.5 0 0 1 2.849-.306q.831 0 1.596.107.763.105 1.578.302v1.362a9 9 0 0 0-1.53-.348 13 13 0 0 0-1.644-.096q-1.455 0-2.838.352-1.386.351-2.586.998m0-4.068V9.617a11 11 0 0 1 2.589-.917q1.38-.305 2.835-.306a12 12 0 0 1 1.595.105q.765.108 1.578.304v1.362a8.6 8.6 0 0 0-1.53-.347 13 13 0 0 0-1.643-.098q-1.455 0-2.838.357-1.386.356-2.586.993M6.75 16.614q1.965 0 3.82.451 1.856.451 3.68 1.47V3.82a12 12 0 0 0-3.579-1.74A13.8 13.8 0 0 0 6.75 1.5q-1.35 0-2.364.16-1.014.162-2.251.6-.345.117-.491.334a.84.84 0 0 0-.144.475v13.523q0 .404.288.59.288.187.634.046a11.5 11.5 0 0 1 1.901-.446 16 16 0 0 1 2.427-.168m9 1.921a14.7 14.7 0 0 1 3.68-1.47 16 16 0 0 1 3.82-.45q1.35 0 2.427.167 1.078.167 1.9.444.345.144.635-.043.29-.188.288-.591V3.069a.78.78 0 0 0-.144-.462q-.145-.201-.49-.345-1.238-.44-2.252-.6a15.5 15.5 0 0 0-2.364-.163q-1.964 0-3.92.579a12 12 0 0 0-3.58 1.74zM15 20.71a15 15 0 0 0-3.93-1.922 14.1 14.1 0 0 0-6.621-.477q-1.13.195-2.199.63-.816.325-1.533-.197T0 17.301V2.804q0-.557.293-1.034.292-.477.82-.663Q2.434.525 3.863.263A16 16 0 0 1 6.75 0q2.205 0 4.299.635A15.3 15.3 0 0 1 15 2.479 15.3 15.3 0 0 1 18.951.635 14.8 14.8 0 0 1 23.25 0q1.46 0 2.887.263 1.429.262 2.75.844.528.187.82.663.293.476.293 1.034V17.3q0 .921-.774 1.415-.776.492-1.65.166a10.6 10.6 0 0 0-2.127-.585 13.3 13.3 0 0 0-2.199-.181q-2.22 0-4.32.672-2.1.67-3.93 1.922"/></svg>