<svg xmlns="http://www.w3.org/2000/svg" width="42" height="42" fill="none"><g clip-path="url(#a)"><path fill="#fff" d="M28.908 13.486H13.092l7.58-6.202v-6.07h.64v.64h3.56v3.232h-3.544v2.198zm12.764 20.032v5.168H28.908v2.264H13.092v-2.264H.328v-5.168H1.46V18.014h11.632v-3.872h15.832v3.872h11.632v15.504zM4.364 24.79H2.756v7.432h1.608zm0-2.904H2.756v1.608h1.608zm2.904 2.904H5.66v7.432h1.608zm0-2.904H5.66v1.608h1.608zm2.904 2.904H8.564v7.432h1.608zm0-2.904H8.564v1.608h1.608zm2.92 2.904h-1.608v7.432h1.608zm0-2.904h-1.608v1.608h1.608zm11.304 12.928h2.264v-16.8h-2.264zm-4.528 0h2.264v-16.8h-2.264zm-4.528 0h2.264v-16.8H15.34zm12.501 4.643H14.16v.525H27.84zm0-1.378H14.16v.525H27.84zm2.691-13.29h-1.608v7.433h1.608zm0-2.903h-1.608v1.608h1.608zm2.904 2.904h-1.608v7.432h1.608zm0-2.904h-1.608v1.608h1.608zm2.904 2.904h-1.608v7.432h1.608zm0-2.904h-1.608v1.608h1.608zm2.904 2.904h-1.608v7.432h1.608zm0-2.904h-1.608v1.608h1.608z"/></g><defs><clipPath id="a"><path fill="#fff" d="M0 0h42v42H0z"/></clipPath></defs></svg>